Patient4_TMGait_0pt5_01_left_33_GRF.mot
version=1
nRows=32
nColumns=19
inDegrees=no
endheader
time	F1x	F1y	F1z	M1x	M1y	M1z	F2x	F2y	F2z	M2x	M2y	M2z	EC1x	EC1y	EC1z	EC2x	EC2y	EC2z
44.03	10.0143	9.8426	12.1832	-5.5002	-8.1026	26.293	2.2844	772.6041	-65.7316	298.0758	51.8957	642.5631	-0.0592	0.0182	-0.0073	-0.0462	0.0165	0.9585
44.0422	6.5591	7.3526	8.1985	-3.9818	-5.4428	18.4997	2.9846	761.0689	-61.284	293.2591	47.7576	628.8696	-0.0592	0.0182	-0.0073	-0.0462	0.0165	0.9585
44.0544	3.6867	5.3025	4.8468	-2.7077	-3.2178	11.9221	4.4614	748.1221	-57.5913	287.8888	43.939	613.8015	-0.0592	0.0182	-0.0073	-0.0462	0.0165	0.9585
44.0666	1.5607	3.7857	2.3092	-1.7481	-1.534	6.9141	6.5908	734.8795	-54.9356	282.4045	40.7288	598.5221	-0.0592	0.0182	-0.0073	-0.0462	0.0165	0.9585
44.0789	0.098372	2.7945	0.57158	-1.0999	-0.39107	3.5037	9.1142	722.6343	-53.3557	277.3057	38.2653	584.2607	-0.0592	0.0182	-0.0073	-0.0462	0.0165	0.9585
44.0911	-0.77817	2.2297	-0.49494	-0.7133	0.31059	1.4202	11.7468	712.6253	-52.6964	273.0738	36.5332	572.1116	-0.0592	0.0182	-0.0073	-0.0462	0.0165	0.9585
44.1033	-1.2578	1.9708	-1.0428	-0.51889	0.65653	0.36881	14.229	705.8174	-52.7677	270.0865	35.4808	562.8814	-0.0592	0.0182	-0.0073	-0.0462	0.0165	0.9585
44.1155	-1.4583	1.859	-1.2388	-0.4379	0.76238	-0.056596	16.3847	702.8042	-53.3307	268.5817	34.9793	557.0091	-0.0592	0.0182	-0.0073	-0.0462	0.0165	0.9585
44.1277	-1.5314	1.771	-1.2062	-0.39833	0.69425	-0.13512	18.1045	703.7477	-54.2055	268.6241	34.9203	554.5772	-0.0592	0.0182	-0.0073	-0.0462	0.0165	0.9585
44.1399	-1.5364	1.5443	-1.0643	-0.32741	0.54456	-0.19009	19.3691	708.3232	-55.2133	270.0941	35.1578	555.2553	-0.0592	0.0182	-0.0073	-0.0462	0.0165	0.9585
44.1521	-1.5555	1.0516	-0.86995	-0.16564	0.34592	-0.42407	20.19	715.8245	-56.2511	272.7191	35.5986	558.4402	-0.0592	0.0182	-0.0073	-0.0462	0.0165	0.9585
44.1644	-1.5862	0.16592	-0.68373	0.13794	0.15543	-1.0309	20.6368	725.2451	-57.198	276.1138	36.1132	563.288	-0.0592	0.0182	-0.0073	-0.0462	0.0165	0.9585
44.1766	-1.617	-1.1843	-0.52704	0.6152	-0.0035743	-2.1033	20.7565	735.4639	-57.9938	279.8447	36.6323	568.9171	-0.0592	0.0182	-0.0073	-0.0462	0.0165	0.9585
44.1888	-1.5949	-3.003	-0.43022	1.2663	-0.086295	-3.6688	20.6087	745.3558	-58.5697	283.4815	37.0749	574.4481	-0.0592	0.0182	-0.0073	-0.0462	0.0165	0.9585
44.201	-1.4285	-5.1803	-0.40603	2.0487	-0.049666	-5.6266	20.1851	753.9311	-58.9009	286.6408	37.4165	579.1416	-0.0592	0.0182	-0.0073	-0.0462	0.0165	0.9585
44.2132	-0.99365	-7.4003	-0.47066	2.8445	0.16925	-7.6758	19.5398	760.3498	-58.9555	289.0004	37.6056	582.3484	-0.0592	0.0182	-0.0073	-0.0462	0.0165	0.9585
44.2254	-0.13223	-9.0968	-0.63628	3.4404	0.63952	-9.291	18.7196	763.9875	-58.7326	290.3153	37.6228	583.6201	-0.0592	0.0182	-0.0073	-0.0462	0.0165	0.9585
44.2376	1.3003	-9.3534	-0.90454	3.4959	1.4162	-9.6076	17.8507	764.4179	-58.2293	290.4188	37.4238	582.6056	-0.0592	0.0182	-0.0073	-0.0462	0.0165	0.9585
44.2499	3.4594	-6.8565	-1.2701	2.5259	2.5464	-7.4187	17.0799	761.5149	-57.4725	289.2516	36.975	579.1855	-0.0592	0.0182	-0.0073	-0.0462	0.0165	0.9585
44.2621	6.3799	0.11459	-1.6934	-0.10102	4.0063	-1.1024	16.5752	755.3897	-56.5029	286.8467	36.2465	573.3987	-0.0592	0.0182	-0.0073	-0.0462	0.0165	0.9585
44.2743	9.9818	13.5714	-2.1082	-5.1186	5.6994	11.2175	16.4314	746.3009	-55.3729	283.2918	35.2399	565.4185	-0.0592	0.0182	-0.0073	-0.0462	0.0165	0.9585
44.2865	13.8825	35.5686	-2.3842	-13.265	7.3601	31.5052	16.6887	734.4433	-54.1252	278.6542	33.975	555.3722	-0.0592	0.0182	-0.0073	-0.0462	0.0165	0.9585
44.2987	17.3412	67.6585	-2.339	-25.0903	8.5366	61.2373	17.291	719.8029	-52.7563	272.9268	32.4734	543.2636	-0.0592	0.0182	-0.0073	-0.0462	0.0165	0.9585
44.3109	19.0649	110.1514	-1.6864	-40.6788	8.4858	100.7914	18.1225	702.0858	-51.2407	266.0023	30.7679	528.9116	-0.0592	0.0182	-0.0073	-0.0462	0.0165	0.9585
44.3231	17.6119	161.4654	-0.13372	-59.4243	6.4129	148.804	19.0167	680.7606	-49.5065	257.6927	28.8768	511.9649	-0.0592	0.0182	-0.0073	-0.0462	0.0165	0.9585
44.3354	12.6326	218.3147	2.6252	-80.0776	1.9143	202.3249	19.8012	655.2887	-47.4593	247.8114	26.8099	492.0745	-0.0592	0.0182	-0.0073	-0.0462	0.0165	0.9585
44.3476	5.2075	275.6433	6.8491	-100.7494	-4.8527	256.5817	20.3796	625.3233	-45.019	236.251	24.5617	468.9888	-0.0592	0.0182	-0.0073	-0.0462	0.0165	0.9585
44.3598	-3.1186	327.5219	12.4942	-119.2969	-13.2615	305.7941	20.6898	590.9329	-42.1879	223.0587	22.1726	442.756	-0.0592	0.0182	-0.0073	-0.0462	0.0165	0.9585
44.372	-10.7922	370.2971	18.7109	-134.4399	-21.9161	346.2542	20.7799	552.7387	-39.0657	208.4846	19.7105	413.7857	-0.0592	0.0182	-0.0073	-0.0462	0.0165	0.9585
44.3842	-17.1061	403.5532	24.6819	-146.084	-29.753	377.4571	20.6822	511.8288	-35.8846	192.9381	17.3292	382.8624	-0.0592	0.0182	-0.0073	-0.0462	0.0165	0.9585
44.3964	-21.8695	429.3219	29.794	-155.0148	-36.1354	401.3011	20.4615	469.4022	-32.9046	176.8595	15.1967	350.8472	-0.0592	0.0182	-0.0073	-0.0462	0.0165	0.9585
44.4086	-25.2341	450.4635	33.8355	-162.3026	-40.9428	420.5345	20.1042	426.5554	-30.2238	160.6472	13.3762	318.5786	-0.0592	0.0182	-0.0073	-0.0462	0.0165	0.9585
